IKResults
version=1
nRows=4
nColumns=79
inDegrees=yes
endheader
time	/jointset/ground_pelvis/pelvis_tilt/value	/jointset/ground_pelvis/pelvis_tilt/speed	/jointset/ground_pelvis/pelvis_list/value	/jointset/ground_pelvis/pelvis_list/speed	/jointset/ground_pelvis/pelvis_rotation/value	/jointset/ground_pelvis/pelvis_rotation/speed	/jointset/ground_pelvis/pelvis_tx/value	/jointset/ground_pelvis/pelvis_tx/speed	/jointset/ground_pelvis/pelvis_ty/value	/jointset/ground_pelvis/pelvis_ty/speed	/jointset/ground_pelvis/pelvis_tz/value	/jointset/ground_pelvis/pelvis_tz/speed	/jointset/hip_r/hip_flexion_r/value	/jointset/hip_r/hip_flexion_r/speed	/jointset/hip_r/hip_adduction_r/value	/jointset/hip_r/hip_adduction_r/speed	/jointset/hip_r/hip_rotation_r/value	/jointset/hip_r/hip_rotation_r/speed	/jointset/walker_knee_r/knee_angle_r/value	/jointset/walker_knee_r/knee_angle_r/speed	/jointset/patellofemoral_r/knee_angle_r_beta/value	/jointset/patellofemoral_r/knee_angle_r_beta/speed	/jointset/ankle_r/ankle_angle_r/value	/jointset/ankle_r/ankle_angle_r/speed	/jointset/subtalar_r/subtalar_angle_r/value	/jointset/subtalar_r/subtalar_angle_r/speed	/jointset/mtp_r/mtp_angle_r/value	/jointset/mtp_r/mtp_angle_r/speed	/jointset/hip_l/hip_flexion_l/value	/jointset/hip_l/hip_flexion_l/speed	/jointset/hip_l/hip_adduction_l/value	/jointset/hip_l/hip_adduction_l/speed	/jointset/hip_l/hip_rotation_l/value	/jointset/hip_l/hip_rotation_l/speed	/jointset/walker_knee_l/knee_angle_l/value	/jointset/walker_knee_l/knee_angle_l/speed	/jointset/patellofemoral_l/knee_angle_l_beta/value	/jointset/patellofemoral_l/knee_angle_l_beta/speed	/jointset/ankle_l/ankle_angle_l/value	/jointset/ankle_l/ankle_angle_l/speed	/jointset/subtalar_l/subtalar_angle_l/value	/jointset/subtalar_l/subtalar_angle_l/speed	/jointset/mtp_l/mtp_angle_l/value	/jointset/mtp_l/mtp_angle_l/speed	/jointset/back/lumbar_extension/value	/jointset/back/lumbar_extension/speed	/jointset/back/lumbar_bending/value	/jointset/back/lumbar_bending/speed	/jointset/back/lumbar_rotation/value	/jointset/back/lumbar_rotation/speed	/jointset/acromial_r/arm_flex_r/value	/jointset/acromial_r/arm_flex_r/speed	/jointset/acromial_r/arm_add_r/value	/jointset/acromial_r/arm_add_r/speed	/jointset/acromial_r/arm_rot_r/value	/jointset/acromial_r/arm_rot_r/speed	/jointset/elbow_r/elbow_flex_r/value	/jointset/elbow_r/elbow_flex_r/speed	/jointset/radioulnar_r/pro_sup_r/value	/jointset/radioulnar_r/pro_sup_r/speed	/jointset/radius_hand_r/wrist_flex_r/value	/jointset/radius_hand_r/wrist_flex_r/speed	/jointset/radius_hand_r/wrist_dev_r/value	/jointset/radius_hand_r/wrist_dev_r/speed	/jointset/acromial_l/arm_flex_l/value	/jointset/acromial_l/arm_flex_l/speed	/jointset/acromial_l/arm_add_l/value	/jointset/acromial_l/arm_add_l/speed	/jointset/acromial_l/arm_rot_l/value	/jointset/acromial_l/arm_rot_l/speed	/jointset/elbow_l/elbow_flex_l/value	/jointset/elbow_l/elbow_flex_l/speed	/jointset/radioulnar_l/pro_sup_l/value	/jointset/radioulnar_l/pro_sup_l/speed	/jointset/radius_hand_l/wrist_flex_l/value	/jointset/radius_hand_l/wrist_flex_l/speed	/jointset/radius_hand_l/wrist_dev_l/value	/jointset/radius_hand_l/wrist_dev_l/speed
      3.04000000	      9.44575619	      0.00000000	     -3.64142426	      0.00000000	      0.89240788	      0.00000000	      0.00000000	      0.00000000	      0.94000000	      0.00000000	      0.00000000	      0.00000000	     29.85735427	      0.00000000	     -9.47362950	      0.00000000	      0.00000000	      0.00000000	     54.55338744	      0.00000000	      0.95213623	      0.00000000	     -3.61942231	      0.00000000	      0.00000000	      0.00000000	      0.00000000	      0.00000000	     29.85735427	      0.00000000	     -9.47362950	      0.00000000	      0.00000000	      0.00000000	     54.55338744	      0.00000000	      0.95213623	      0.00000000	     -3.61942231	      0.00000000	      0.00000000	      0.00000000	      0.00000000	      0.00000000	     -9.34550970	      0.00000000	      3.21266782	      0.00000000	      0.79596118	      0.00000000	      3.40172709	      0.00000000	     -8.00898221	      0.00000000	     -6.52325293	      0.00000000	     12.91263048	      0.00000000	     45.61568082	      0.00000000	      0.00000000	      0.00000000	      4.95590156	      0.00000000	      2.73829676	      0.00000000	      0.83956614	      0.00000000	     -0.48102378	      0.00000000	      0.09318270	      0.00000000	     45.61568082	      0.00000000	      0.00000000	      0.00000000	      4.95590156	      0.00000000
      3.06000000	      9.39372431	      0.00000000	     -3.63007176	      0.00000000	      0.79728271	      0.00000000	      0.00000000	      0.00000000	      0.94000000	      0.00000000	      0.00000000	      0.00000000	     29.96278488	      0.00000000	     -9.48254276	      0.00000000	      0.00000000	      0.00000000	     54.58972094	      0.00000000	      0.95277037	      0.00000000	     -3.63142852	      0.00000000	      0.00000000	      0.00000000	      0.00000000	      0.00000000	     29.96278488	      0.00000000	     -9.48254276	      0.00000000	      0.00000000	      0.00000000	     54.58972094	      0.00000000	      0.95277037	      0.00000000	     -3.63142852	      0.00000000	      0.00000000	      0.00000000	      0.00000000	      0.00000000	     -9.31320220	      0.00000000	      3.17674196	      0.00000000	      0.74450679	      0.00000000	      3.43292964	      0.00000000	     -8.53397571	      0.00000000	     -7.77448930	      0.00000000	     15.81003943	      0.00000000	     45.60685583	      0.00000000	      0.00000000	      0.00000000	      4.95701773	      0.00000000	      2.71603298	      0.00000000	      0.84465621	      0.00000000	     -0.43225377	      0.00000000	      0.09329623	      0.00000000	     45.60685583	      0.00000000	      0.00000000	      0.00000000	      4.95701773	      0.00000000
      3.08000000	      9.40049150	      0.00000000	     -3.63231501	      0.00000000	      0.72228429	      0.00000000	      0.00000000	      0.00000000	      0.94000000	      0.00000000	      0.00000000	      0.00000000	     30.06868080	      0.00000000	     -9.49135793	      0.00000000	      0.00000000	      0.00000000	     54.62640664	      0.00000000	      0.95341065	      0.00000000	     -3.64345641	      0.00000000	      0.00000000	      0.00000000	      0.00000000	      0.00000000	     30.06868080	      0.00000000	     -9.49135793	      0.00000000	      0.00000000	      0.00000000	     54.62640664	      0.00000000	      0.95341065	      0.00000000	     -3.64345641	      0.00000000	      0.00000000	      0.00000000	      0.00000000	      0.00000000	     -9.36144957	      0.00000000	      3.16095918	      0.00000000	      0.67000613	      0.00000000	      3.44294722	      0.00000000	     -8.63523709	      0.00000000	     -9.60642753	      0.00000000	     19.52513780	      0.00000000	     45.59809484	      0.00000000	      0.00000000	      0.00000000	      4.95810944	      0.00000000	      2.74397179	      0.00000000	      0.80055146	      0.00000000	     -0.42548127	      0.00000000	      0.09395051	      0.00000000	     45.59809484	      0.00000000	      0.00000000	      0.00000000	      4.95810944	      0.00000000
      3.10000000	      9.38139069	      0.00000000	     -3.65048462	      0.00000000	      0.63842247	      0.00000000	      0.00000000	      0.00000000	      0.94000000	      0.00000000	      0.00000000	      0.00000000	     30.17156007	      0.00000000	     -9.49986344	      0.00000000	      0.00000000	      0.00000000	     54.66200796	      0.00000000	      0.95403201	      0.00000000	     -3.65513038	      0.00000000	      0.00000000	      0.00000000	      0.00000000	      0.00000000	     30.17156007	      0.00000000	     -9.49986344	      0.00000000	      0.00000000	      0.00000000	     54.66200796	      0.00000000	      0.95403201	      0.00000000	     -3.65513038	      0.00000000	      0.00000000	      0.00000000	      0.00000000	      0.00000000	     -9.34468085	      0.00000000	      3.16394115	      0.00000000	      0.65495965	      0.00000000	      3.37963140	      0.00000000	     -8.82448168	      0.00000000	    -11.56033727	      0.00000000	     23.18577120	      0.00000000	     45.58962526	      0.00000000	      0.00000000	      0.00000000	      4.95915592	      0.00000000	      2.73601818	      0.00000000	      0.74665228	      0.00000000	     -0.40723075	      0.00000000	      0.09422564	      0.00000000	     45.58962526	      0.00000000	      0.00000000	      0.00000000	      4.95915592	      0.00000000
